<svg xmlns="http://www.w3.org/2000/svg" width="512" height="512" viewBox="0 0 64 64">
  <rect width="64" height="64" rx="14" fill="#06080e" />
  <rect x="8" y="9" width="2" height="2" fill="#5fead2" />
  <rect x="13" y="7" width="2" height="2" fill="#ffcd69" />
  <rect x="53" y="14" width="2" height="2" fill="#5fead2" />
  <rect x="11" y="50" width="2" height="2" fill="#ffcd69" />
  <rect x="48" y="54" width="2" height="2" fill="#5fead2" />

  <rect x="18" y="12" width="4" height="4" fill="#4e5f84" />
  <rect x="22" y="12" width="4" height="4" fill="#4e5f84" />
  <rect x="26" y="12" width="4" height="4" fill="#4e5f84" />
  <rect x="30" y="12" width="4" height="4" fill="#4e5f84" />
  <rect x="34" y="12" width="4" height="4" fill="#4e5f84" />
  <rect x="38" y="12" width="4" height="4" fill="#4e5f84" />
  <rect x="42" y="12" width="4" height="4" fill="#4e5f84" />

  <rect x="14" y="16" width="4" height="4" fill="#4e5f84" />
  <rect x="18" y="16" width="4" height="4" fill="#4e5f84" />
  <rect x="22" y="16" width="4" height="4" fill="#ffcd69" />
  <rect x="26" y="16" width="4" height="4" fill="#ffcd69" />
  <rect x="30" y="16" width="4" height="4" fill="#ffcd69" />
  <rect x="34" y="16" width="4" height="4" fill="#ffcd69" />
  <rect x="38" y="16" width="4" height="4" fill="#ffcd69" />
  <rect x="42" y="16" width="4" height="4" fill="#4e5f84" />
  <rect x="46" y="16" width="4" height="4" fill="#4e5f84" />

  <rect x="10" y="20" width="4" height="4" fill="#4e5f84" />
  <rect x="14" y="20" width="4" height="4" fill="#4e5f84" />
  <rect x="18" y="20" width="4" height="4" fill="#ffcd69" />
  <rect x="22" y="20" width="4" height="4" fill="#ffcd69" />
  <rect x="26" y="20" width="4" height="4" fill="#ffcd69" />
  <rect x="30" y="20" width="4" height="4" fill="#ffcd69" />
  <rect x="34" y="20" width="4" height="4" fill="#ffcd69" />
  <rect x="38" y="20" width="4" height="4" fill="#ffcd69" />
  <rect x="42" y="20" width="4" height="4" fill="#4e5f84" />
  <rect x="46" y="20" width="4" height="4" fill="#4e5f84" />
  <rect x="50" y="20" width="4" height="4" fill="#4e5f84" />

  <rect x="10" y="24" width="4" height="4" fill="#4e5f84" />
  <rect x="14" y="24" width="4" height="4" fill="#4e5f84" />
  <rect x="18" y="24" width="4" height="4" fill="#ffcd69" />
  <rect x="22" y="24" width="4" height="4" fill="#ffcd69" />
  <rect x="26" y="24" width="4" height="4" fill="#ffcd69" />
  <rect x="30" y="24" width="4" height="4" fill="#ffcd69" />
  <rect x="34" y="24" width="4" height="4" fill="#ffcd69" />
  <rect x="38" y="24" width="4" height="4" fill="#ffcd69" />
  <rect x="42" y="24" width="4" height="4" fill="#4e5f84" />
  <rect x="46" y="24" width="4" height="4" fill="#4e5f84" />
  <rect x="50" y="24" width="4" height="4" fill="#4e5f84" />

  <rect x="10" y="28" width="4" height="4" fill="#4e5f84" />
  <rect x="14" y="28" width="4" height="4" fill="#4e5f84" />
  <rect x="18" y="28" width="4" height="4" fill="#ffcd69" />
  <rect x="22" y="28" width="4" height="4" fill="#ffcd69" />
  <rect x="26" y="28" width="4" height="4" fill="#ffcd69" />
  <rect x="30" y="28" width="4" height="4" fill="#ffcd69" />
  <rect x="34" y="28" width="4" height="4" fill="#ffcd69" />
  <rect x="38" y="28" width="4" height="4" fill="#ffcd69" />
  <rect x="42" y="28" width="4" height="4" fill="#4e5f84" />
  <rect x="46" y="28" width="4" height="4" fill="#4e5f84" />
  <rect x="50" y="28" width="4" height="4" fill="#4e5f84" />

  <rect x="10" y="32" width="4" height="4" fill="#4e5f84" />
  <rect x="14" y="32" width="4" height="4" fill="#4e5f84" />
  <rect x="18" y="32" width="4" height="4" fill="#ffcd69" />
  <rect x="22" y="32" width="4" height="4" fill="#ffcd69" />
  <rect x="26" y="32" width="4" height="4" fill="#ffcd69" />
  <rect x="30" y="32" width="4" height="4" fill="#ffcd69" />
  <rect x="34" y="32" width="4" height="4" fill="#ffcd69" />
  <rect x="38" y="32" width="4" height="4" fill="#ffcd69" />
  <rect x="42" y="32" width="4" height="4" fill="#4e5f84" />
  <rect x="46" y="32" width="4" height="4" fill="#4e5f84" />
  <rect x="50" y="32" width="4" height="4" fill="#4e5f84" />

  <rect x="14" y="36" width="4" height="4" fill="#4e5f84" />
  <rect x="18" y="36" width="4" height="4" fill="#4e5f84" />
  <rect x="22" y="36" width="4" height="4" fill="#ffcd69" />
  <rect x="26" y="36" width="4" height="4" fill="#ffcd69" />
  <rect x="30" y="36" width="4" height="4" fill="#ffcd69" />
  <rect x="34" y="36" width="4" height="4" fill="#ffcd69" />
  <rect x="38" y="36" width="4" height="4" fill="#ffcd69" />
  <rect x="42" y="36" width="4" height="4" fill="#4e5f84" />
  <rect x="46" y="36" width="4" height="4" fill="#4e5f84" />

  <rect x="18" y="40" width="4" height="4" fill="#4e5f84" />
  <rect x="22" y="40" width="4" height="4" fill="#4e5f84" />
  <rect x="26" y="40" width="4" height="4" fill="#4e5f84" />
  <rect x="30" y="40" width="4" height="4" fill="#4e5f84" />
  <rect x="34" y="40" width="4" height="4" fill="#4e5f84" />
  <rect x="38" y="40" width="4" height="4" fill="#4e5f84" />
  <rect x="42" y="40" width="4" height="4" fill="#4e5f84" />
</svg>
