<svg xmlns="http://www.w3.org/2000/svg" width="192" height="192" viewBox="0 0 192 192">
  <rect width="192" height="192" rx="42" fill="#06080e" />
  <rect x="26" y="28" width="4" height="4" fill="#5fead2" />
  <rect x="36" y="24" width="4" height="4" fill="#ffcd69" />
  <rect x="157" y="42" width="4" height="4" fill="#5fead2" />
  <rect x="150" y="150" width="4" height="4" fill="#ffcd69" />
  <rect x="42" y="150" width="4" height="4" fill="#5fead2" />

  <rect x="50" y="50" width="12" height="12" fill="#4e5f84" />
  <rect x="62" y="50" width="12" height="12" fill="#4e5f84" />
  <rect x="74" y="50" width="12" height="12" fill="#4e5f84" />
  <rect x="86" y="50" width="12" height="12" fill="#4e5f84" />
  <rect x="98" y="50" width="12" height="12" fill="#4e5f84" />
  <rect x="110" y="50" width="12" height="12" fill="#4e5f84" />
  <rect x="122" y="50" width="12" height="12" fill="#4e5f84" />

  <rect x="38" y="62" width="12" height="12" fill="#4e5f84" />
  <rect x="50" y="62" width="12" height="12" fill="#4e5f84" />
  <rect x="62" y="62" width="12" height="12" fill="#ffcd69" />
  <rect x="74" y="62" width="12" height="12" fill="#ffcd69" />
  <rect x="86" y="62" width="12" height="12" fill="#ffcd69" />
  <rect x="98" y="62" width="12" height="12" fill="#ffcd69" />
  <rect x="110" y="62" width="12" height="12" fill="#ffcd69" />
  <rect x="122" y="62" width="12" height="12" fill="#4e5f84" />
  <rect x="134" y="62" width="12" height="12" fill="#4e5f84" />

  <rect x="26" y="74" width="12" height="12" fill="#4e5f84" />
  <rect x="38" y="74" width="12" height="12" fill="#4e5f84" />
  <rect x="50" y="74" width="12" height="12" fill="#ffcd69" />
  <rect x="62" y="74" width="12" height="12" fill="#ffcd69" />
  <rect x="74" y="74" width="12" height="12" fill="#ffcd69" />
  <rect x="86" y="74" width="12" height="12" fill="#ffcd69" />
  <rect x="98" y="74" width="12" height="12" fill="#ffcd69" />
  <rect x="110" y="74" width="12" height="12" fill="#ffcd69" />
  <rect x="122" y="74" width="12" height="12" fill="#4e5f84" />
  <rect x="134" y="74" width="12" height="12" fill="#4e5f84" />
  <rect x="146" y="74" width="12" height="12" fill="#4e5f84" />

  <rect x="26" y="86" width="12" height="12" fill="#4e5f84" />
  <rect x="38" y="86" width="12" height="12" fill="#4e5f84" />
  <rect x="50" y="86" width="12" height="12" fill="#ffcd69" />
  <rect x="62" y="86" width="12" height="12" fill="#ffcd69" />
  <rect x="74" y="86" width="12" height="12" fill="#ffcd69" />
  <rect x="86" y="86" width="12" height="12" fill="#ffcd69" />
  <rect x="98" y="86" width="12" height="12" fill="#ffcd69" />
  <rect x="110" y="86" width="12" height="12" fill="#ffcd69" />
  <rect x="122" y="86" width="12" height="12" fill="#4e5f84" />
  <rect x="134" y="86" width="12" height="12" fill="#4e5f84" />
  <rect x="146" y="86" width="12" height="12" fill="#4e5f84" />

  <rect x="26" y="98" width="12" height="12" fill="#4e5f84" />
  <rect x="38" y="98" width="12" height="12" fill="#4e5f84" />
  <rect x="50" y="98" width="12" height="12" fill="#ffcd69" />
  <rect x="62" y="98" width="12" height="12" fill="#ffcd69" />
  <rect x="74" y="98" width="12" height="12" fill="#ffcd69" />
  <rect x="86" y="98" width="12" height="12" fill="#ffcd69" />
  <rect x="98" y="98" width="12" height="12" fill="#ffcd69" />
  <rect x="110" y="98" width="12" height="12" fill="#ffcd69" />
  <rect x="122" y="98" width="12" height="12" fill="#4e5f84" />
  <rect x="134" y="98" width="12" height="12" fill="#4e5f84" />
  <rect x="146" y="98" width="12" height="12" fill="#4e5f84" />

  <rect x="26" y="110" width="12" height="12" fill="#4e5f84" />
  <rect x="38" y="110" width="12" height="12" fill="#4e5f84" />
  <rect x="50" y="110" width="12" height="12" fill="#ffcd69" />
  <rect x="62" y="110" width="12" height="12" fill="#ffcd69" />
  <rect x="74" y="110" width="12" height="12" fill="#ffcd69" />
  <rect x="86" y="110" width="12" height="12" fill="#ffcd69" />
  <rect x="98" y="110" width="12" height="12" fill="#ffcd69" />
  <rect x="110" y="110" width="12" height="12" fill="#ffcd69" />
  <rect x="122" y="110" width="12" height="12" fill="#4e5f84" />
  <rect x="134" y="110" width="12" height="12" fill="#4e5f84" />
  <rect x="146" y="110" width="12" height="12" fill="#4e5f84" />

  <rect x="38" y="122" width="12" height="12" fill="#4e5f84" />
  <rect x="50" y="122" width="12" height="12" fill="#4e5f84" />
  <rect x="62" y="122" width="12" height="12" fill="#ffcd69" />
  <rect x="74" y="122" width="12" height="12" fill="#ffcd69" />
  <rect x="86" y="122" width="12" height="12" fill="#ffcd69" />
  <rect x="98" y="122" width="12" height="12" fill="#ffcd69" />
  <rect x="110" y="122" width="12" height="12" fill="#ffcd69" />
  <rect x="122" y="122" width="12" height="12" fill="#4e5f84" />
  <rect x="134" y="122" width="12" height="12" fill="#4e5f84" />

  <rect x="50" y="134" width="12" height="12" fill="#4e5f84" />
  <rect x="62" y="134" width="12" height="12" fill="#4e5f84" />
  <rect x="74" y="134" width="12" height="12" fill="#4e5f84" />
  <rect x="86" y="134" width="12" height="12" fill="#4e5f84" />
  <rect x="98" y="134" width="12" height="12" fill="#4e5f84" />
  <rect x="110" y="134" width="12" height="12" fill="#4e5f84" />
  <rect x="122" y="134" width="12" height="12" fill="#4e5f84" />
</svg>
