<svg xmlns="http://www.w3.org/2000/svg" width="512" height="512" viewBox="0 0 512 512">
  <rect width="512" height="512" fill="#06080e" />
  <rect x="80" y="72" width="12" height="12" fill="#5fead2" />
  <rect x="108" y="60" width="12" height="12" fill="#ffcd69" />
  <rect x="418" y="92" width="12" height="12" fill="#5fead2" />
  <rect x="420" y="414" width="12" height="12" fill="#ffcd69" />
  <rect x="108" y="420" width="12" height="12" fill="#5fead2" />

  <rect x="116" y="120" width="36" height="36" fill="#4e5f84" />
  <rect x="152" y="120" width="36" height="36" fill="#4e5f84" />
  <rect x="188" y="120" width="36" height="36" fill="#4e5f84" />
  <rect x="224" y="120" width="36" height="36" fill="#4e5f84" />
  <rect x="260" y="120" width="36" height="36" fill="#4e5f84" />
  <rect x="296" y="120" width="36" height="36" fill="#4e5f84" />
  <rect x="332" y="120" width="36" height="36" fill="#4e5f84" />

  <rect x="80" y="156" width="36" height="36" fill="#4e5f84" />
  <rect x="116" y="156" width="36" height="36" fill="#4e5f84" />
  <rect x="152" y="156" width="36" height="36" fill="#ffcd69" />
  <rect x="188" y="156" width="36" height="36" fill="#ffcd69" />
  <rect x="224" y="156" width="36" height="36" fill="#ffcd69" />
  <rect x="260" y="156" width="36" height="36" fill="#ffcd69" />
  <rect x="296" y="156" width="36" height="36" fill="#ffcd69" />
  <rect x="332" y="156" width="36" height="36" fill="#4e5f84" />
  <rect x="368" y="156" width="36" height="36" fill="#4e5f84" />

  <rect x="44" y="192" width="36" height="36" fill="#4e5f84" />
  <rect x="80" y="192" width="36" height="36" fill="#4e5f84" />
  <rect x="116" y="192" width="36" height="36" fill="#ffcd69" />
  <rect x="152" y="192" width="36" height="36" fill="#ffcd69" />
  <rect x="188" y="192" width="36" height="36" fill="#ffcd69" />
  <rect x="224" y="192" width="36" height="36" fill="#ffcd69" />
  <rect x="260" y="192" width="36" height="36" fill="#ffcd69" />
  <rect x="296" y="192" width="36" height="36" fill="#ffcd69" />
  <rect x="332" y="192" width="36" height="36" fill="#4e5f84" />
  <rect x="368" y="192" width="36" height="36" fill="#4e5f84" />
  <rect x="404" y="192" width="36" height="36" fill="#4e5f84" />

  <rect x="44" y="228" width="36" height="36" fill="#4e5f84" />
  <rect x="80" y="228" width="36" height="36" fill="#4e5f84" />
  <rect x="116" y="228" width="36" height="36" fill="#ffcd69" />
  <rect x="152" y="228" width="36" height="36" fill="#ffcd69" />
  <rect x="188" y="228" width="36" height="36" fill="#ffcd69" />
  <rect x="224" y="228" width="36" height="36" fill="#ffcd69" />
  <rect x="260" y="228" width="36" height="36" fill="#ffcd69" />
  <rect x="296" y="228" width="36" height="36" fill="#ffcd69" />
  <rect x="332" y="228" width="36" height="36" fill="#4e5f84" />
  <rect x="368" y="228" width="36" height="36" fill="#4e5f84" />
  <rect x="404" y="228" width="36" height="36" fill="#4e5f84" />

  <rect x="44" y="264" width="36" height="36" fill="#4e5f84" />
  <rect x="80" y="264" width="36" height="36" fill="#4e5f84" />
  <rect x="116" y="264" width="36" height="36" fill="#ffcd69" />
  <rect x="152" y="264" width="36" height="36" fill="#ffcd69" />
  <rect x="188" y="264" width="36" height="36" fill="#ffcd69" />
  <rect x="224" y="264" width="36" height="36" fill="#ffcd69" />
  <rect x="260" y="264" width="36" height="36" fill="#ffcd69" />
  <rect x="296" y="264" width="36" height="36" fill="#ffcd69" />
  <rect x="332" y="264" width="36" height="36" fill="#4e5f84" />
  <rect x="368" y="264" width="36" height="36" fill="#4e5f84" />
  <rect x="404" y="264" width="36" height="36" fill="#4e5f84" />

  <rect x="44" y="300" width="36" height="36" fill="#4e5f84" />
  <rect x="80" y="300" width="36" height="36" fill="#4e5f84" />
  <rect x="116" y="300" width="36" height="36" fill="#ffcd69" />
  <rect x="152" y="300" width="36" height="36" fill="#ffcd69" />
  <rect x="188" y="300" width="36" height="36" fill="#ffcd69" />
  <rect x="224" y="300" width="36" height="36" fill="#ffcd69" />
  <rect x="260" y="300" width="36" height="36" fill="#ffcd69" />
  <rect x="296" y="300" width="36" height="36" fill="#ffcd69" />
  <rect x="332" y="300" width="36" height="36" fill="#4e5f84" />
  <rect x="368" y="300" width="36" height="36" fill="#4e5f84" />
  <rect x="404" y="300" width="36" height="36" fill="#4e5f84" />

  <rect x="80" y="336" width="36" height="36" fill="#4e5f84" />
  <rect x="116" y="336" width="36" height="36" fill="#4e5f84" />
  <rect x="152" y="336" width="36" height="36" fill="#ffcd69" />
  <rect x="188" y="336" width="36" height="36" fill="#ffcd69" />
  <rect x="224" y="336" width="36" height="36" fill="#ffcd69" />
  <rect x="260" y="336" width="36" height="36" fill="#ffcd69" />
  <rect x="296" y="336" width="36" height="36" fill="#ffcd69" />
  <rect x="332" y="336" width="36" height="36" fill="#4e5f84" />
  <rect x="368" y="336" width="36" height="36" fill="#4e5f84" />

  <rect x="116" y="372" width="36" height="36" fill="#4e5f84" />
  <rect x="152" y="372" width="36" height="36" fill="#4e5f84" />
  <rect x="188" y="372" width="36" height="36" fill="#4e5f84" />
  <rect x="224" y="372" width="36" height="36" fill="#4e5f84" />
  <rect x="260" y="372" width="36" height="36" fill="#4e5f84" />
  <rect x="296" y="372" width="36" height="36" fill="#4e5f84" />
  <rect x="332" y="372" width="36" height="36" fill="#4e5f84" />
</svg>
