<svg xmlns="http://www.w3.org/2000/svg" width="512" height="512"><path fill="#06080e" d="M0 0h512v512H0z"/><path fill="#5fead2" d="M80 72h12v12H80z"/><path fill="#ffcd69" d="M108 60h12v12h-12z"/><path fill="#5fead2" d="M418 92h12v12h-12z"/><path fill="#ffcd69" d="M420 414h12v12h-12z"/><path fill="#5fead2" d="M108 420h12v12h-12z"/><path fill="#4e5f84" d="M116 120h36v36h-36zm36 0h36v36h-36zm36 0h36v36h-36zm36 0h36v36h-36zm36 0h36v36h-36zm36 0h36v36h-36zm36 0h36v36h-36zM80 156h36v36H80zm36 0h36v36h-36z"/><path fill="#ffcd69" d="M152 156h36v36h-36zm36 0h36v36h-36zm36 0h36v36h-36zm36 0h36v36h-36zm36 0h36v36h-36z"/><path fill="#4e5f84" d="M332 156h36v36h-36zm36 0h36v36h-36zM44 192h36v36H44zm36 0h36v36H80z"/><path fill="#ffcd69" d="M116 192h36v36h-36zm36 0h36v36h-36zm36 0h36v36h-36zm36 0h36v36h-36zm36 0h36v36h-36zm36 0h36v36h-36z"/><path fill="#4e5f84" d="M332 192h36v36h-36zm36 0h36v36h-36zm36 0h36v36h-36zM44 228h36v36H44zm36 0h36v36H80z"/><path fill="#ffcd69" d="M116 228h36v36h-36zm36 0h36v36h-36zm36 0h36v36h-36zm36 0h36v36h-36zm36 0h36v36h-36zm36 0h36v36h-36z"/><path fill="#4e5f84" d="M332 228h36v36h-36zm36 0h36v36h-36zm36 0h36v36h-36zM44 264h36v36H44zm36 0h36v36H80z"/><path fill="#ffcd69" d="M116 264h36v36h-36zm36 0h36v36h-36zm36 0h36v36h-36zm36 0h36v36h-36zm36 0h36v36h-36zm36 0h36v36h-36z"/><path fill="#4e5f84" d="M332 264h36v36h-36zm36 0h36v36h-36zm36 0h36v36h-36zM44 300h36v36H44zm36 0h36v36H80z"/><path fill="#ffcd69" d="M116 300h36v36h-36zm36 0h36v36h-36zm36 0h36v36h-36zm36 0h36v36h-36zm36 0h36v36h-36zm36 0h36v36h-36z"/><path fill="#4e5f84" d="M332 300h36v36h-36zm36 0h36v36h-36zm36 0h36v36h-36zM80 336h36v36H80zm36 0h36v36h-36z"/><path fill="#ffcd69" d="M152 336h36v36h-36zm36 0h36v36h-36zm36 0h36v36h-36zm36 0h36v36h-36zm36 0h36v36h-36z"/><path fill="#4e5f84" d="M332 336h36v36h-36zm36 0h36v36h-36zm-252 36h36v36h-36zm36 0h36v36h-36zm36 0h36v36h-36zm36 0h36v36h-36zm36 0h36v36h-36zm36 0h36v36h-36zm36 0h36v36h-36z"/></svg>