<svg xmlns="http://www.w3.org/2000/svg" width="192" height="192"><rect width="192" height="192" fill="#06080e" rx="42"/><path fill="#5fead2" d="M26 28h4v4h-4z"/><path fill="#ffcd69" d="M36 24h4v4h-4z"/><path fill="#5fead2" d="M157 42h4v4h-4z"/><path fill="#ffcd69" d="M150 150h4v4h-4z"/><path fill="#5fead2" d="M42 150h4v4h-4z"/><path fill="#4e5f84" d="M50 50h12v12H50zm12 0h12v12H62zm12 0h12v12H74zm12 0h12v12H86zm12 0h12v12H98zm12 0h12v12h-12zm12 0h12v12h-12zM38 62h12v12H38zm12 0h12v12H50z"/><path fill="#ffcd69" d="M62 62h12v12H62zm12 0h12v12H74zm12 0h12v12H86zm12 0h12v12H98zm12 0h12v12h-12z"/><path fill="#4e5f84" d="M122 62h12v12h-12zm12 0h12v12h-12zM26 74h12v12H26zm12 0h12v12H38z"/><path fill="#ffcd69" d="M50 74h12v12H50zm12 0h12v12H62zm12 0h12v12H74zm12 0h12v12H86zm12 0h12v12H98zm12 0h12v12h-12z"/><path fill="#4e5f84" d="M122 74h12v12h-12zm12 0h12v12h-12zm12 0h12v12h-12zM26 86h12v12H26zm12 0h12v12H38z"/><path fill="#ffcd69" d="M50 86h12v12H50zm12 0h12v12H62zm12 0h12v12H74zm12 0h12v12H86zm12 0h12v12H98zm12 0h12v12h-12z"/><path fill="#4e5f84" d="M122 86h12v12h-12zm12 0h12v12h-12zm12 0h12v12h-12zM26 98h12v12H26zm12 0h12v12H38z"/><path fill="#ffcd69" d="M50 98h12v12H50zm12 0h12v12H62zm12 0h12v12H74zm12 0h12v12H86zm12 0h12v12H98zm12 0h12v12h-12z"/><path fill="#4e5f84" d="M122 98h12v12h-12zm12 0h12v12h-12zm12 0h12v12h-12zM26 110h12v12H26zm12 0h12v12H38z"/><path fill="#ffcd69" d="M50 110h12v12H50zm12 0h12v12H62zm12 0h12v12H74zm12 0h12v12H86zm12 0h12v12H98zm12 0h12v12h-12z"/><path fill="#4e5f84" d="M122 110h12v12h-12zm12 0h12v12h-12zm12 0h12v12h-12zM38 122h12v12H38zm12 0h12v12H50z"/><path fill="#ffcd69" d="M62 122h12v12H62zm12 0h12v12H74zm12 0h12v12H86zm12 0h12v12H98zm12 0h12v12h-12z"/><path fill="#4e5f84" d="M122 122h12v12h-12zm12 0h12v12h-12zm-84 12h12v12H50zm12 0h12v12H62zm12 0h12v12H74zm12 0h12v12H86zm12 0h12v12H98zm12 0h12v12h-12zm12 0h12v12h-12z"/></svg>