<svg xmlns="http://www.w3.org/2000/svg" width="512" height="512" viewBox="0 0 64 64"><rect width="64" height="64" fill="#06080e" rx="14"/><path fill="#5fead2" d="M8 9h2v2H8z"/><path fill="#ffcd69" d="M13 7h2v2h-2z"/><path fill="#5fead2" d="M53 14h2v2h-2z"/><path fill="#ffcd69" d="M11 50h2v2h-2z"/><path fill="#5fead2" d="M48 54h2v2h-2z"/><path fill="#4e5f84" d="M18 12h4v4h-4zm4 0h4v4h-4zm4 0h4v4h-4zm4 0h4v4h-4zm4 0h4v4h-4zm4 0h4v4h-4zm4 0h4v4h-4zm-28 4h4v4h-4zm4 0h4v4h-4z"/><path fill="#ffcd69" d="M22 16h4v4h-4zm4 0h4v4h-4zm4 0h4v4h-4zm4 0h4v4h-4zm4 0h4v4h-4z"/><path fill="#4e5f84" d="M42 16h4v4h-4zm4 0h4v4h-4zm-36 4h4v4h-4zm4 0h4v4h-4z"/><path fill="#ffcd69" d="M18 20h4v4h-4zm4 0h4v4h-4zm4 0h4v4h-4zm4 0h4v4h-4zm4 0h4v4h-4zm4 0h4v4h-4z"/><path fill="#4e5f84" d="M42 20h4v4h-4zm4 0h4v4h-4zm4 0h4v4h-4zm-40 4h4v4h-4zm4 0h4v4h-4z"/><path fill="#ffcd69" d="M18 24h4v4h-4zm4 0h4v4h-4zm4 0h4v4h-4zm4 0h4v4h-4zm4 0h4v4h-4zm4 0h4v4h-4z"/><path fill="#4e5f84" d="M42 24h4v4h-4zm4 0h4v4h-4zm4 0h4v4h-4zm-40 4h4v4h-4zm4 0h4v4h-4z"/><path fill="#ffcd69" d="M18 28h4v4h-4zm4 0h4v4h-4zm4 0h4v4h-4zm4 0h4v4h-4zm4 0h4v4h-4zm4 0h4v4h-4z"/><path fill="#4e5f84" d="M42 28h4v4h-4zm4 0h4v4h-4zm4 0h4v4h-4zm-40 4h4v4h-4zm4 0h4v4h-4z"/><path fill="#ffcd69" d="M18 32h4v4h-4zm4 0h4v4h-4zm4 0h4v4h-4zm4 0h4v4h-4zm4 0h4v4h-4zm4 0h4v4h-4z"/><path fill="#4e5f84" d="M42 32h4v4h-4zm4 0h4v4h-4zm4 0h4v4h-4zm-36 4h4v4h-4zm4 0h4v4h-4z"/><path fill="#ffcd69" d="M22 36h4v4h-4zm4 0h4v4h-4zm4 0h4v4h-4zm4 0h4v4h-4zm4 0h4v4h-4z"/><path fill="#4e5f84" d="M42 36h4v4h-4zm4 0h4v4h-4zm-28 4h4v4h-4zm4 0h4v4h-4zm4 0h4v4h-4zm4 0h4v4h-4zm4 0h4v4h-4zm4 0h4v4h-4zm4 0h4v4h-4z"/></svg>